<mxfile host="app.diagrams.net" modified="2024-01-16T11:06:04.434Z" agent="Mozilla/5.0 (X11; Linux x86_64; rv:121.0) Gecko/20100101 Firefox/121.0" etag="t6CgKVG7lyWMG6muqR1U" version="22.1.18" type="github">
  <diagram name="Page-1" id="2YBvvXClWsGukQMizWep">
    <mxGraphModel dx="1434" dy="732" grid="1" gridSize="10" guides="1" tooltips="1" connect="1" arrows="1" fold="1" page="1" pageScale="1" pageWidth="850" pageHeight="1100" math="0" shadow="0">
      <root>
        <mxCell id="0" />
        <mxCell id="1" parent="0" />
        <mxCell id="aM9ryv3xv72pqoxQDRHE-1" value=":Agent" style="shape=umlLifeline;perimeter=lifelinePerimeter;whiteSpace=wrap;html=1;container=0;dropTarget=0;collapsible=0;recursiveResize=0;outlineConnect=0;portConstraint=eastwest;newEdgeStyle={&quot;edgeStyle&quot;:&quot;elbowEdgeStyle&quot;,&quot;elbow&quot;:&quot;vertical&quot;,&quot;curved&quot;:0,&quot;rounded&quot;:0};" parent="1" vertex="1">
          <mxGeometry x="40" y="40" width="100" height="350" as="geometry" />
        </mxCell>
        <mxCell id="aM9ryv3xv72pqoxQDRHE-2" value="" style="html=1;points=[];perimeter=orthogonalPerimeter;outlineConnect=0;targetShapes=umlLifeline;portConstraint=eastwest;newEdgeStyle={&quot;edgeStyle&quot;:&quot;elbowEdgeStyle&quot;,&quot;elbow&quot;:&quot;vertical&quot;,&quot;curved&quot;:0,&quot;rounded&quot;:0};" parent="aM9ryv3xv72pqoxQDRHE-1" vertex="1">
          <mxGeometry x="45" y="70" width="10" height="250" as="geometry" />
        </mxCell>
        <mxCell id="aM9ryv3xv72pqoxQDRHE-5" value=":DiscoverySystem" style="shape=umlLifeline;perimeter=lifelinePerimeter;whiteSpace=wrap;html=1;container=0;dropTarget=0;collapsible=0;recursiveResize=0;outlineConnect=0;portConstraint=eastwest;newEdgeStyle={&quot;edgeStyle&quot;:&quot;elbowEdgeStyle&quot;,&quot;elbow&quot;:&quot;vertical&quot;,&quot;curved&quot;:0,&quot;rounded&quot;:0};" parent="1" vertex="1">
          <mxGeometry x="230" y="40" width="100" height="350" as="geometry" />
        </mxCell>
        <mxCell id="cc4XYzGoG_5n-Fmv61_O-27" value="" style="html=1;points=[];perimeter=orthogonalPerimeter;outlineConnect=0;targetShapes=umlLifeline;portConstraint=eastwest;newEdgeStyle={&quot;edgeStyle&quot;:&quot;elbowEdgeStyle&quot;,&quot;elbow&quot;:&quot;vertical&quot;,&quot;curved&quot;:0,&quot;rounded&quot;:0};" parent="aM9ryv3xv72pqoxQDRHE-5" vertex="1">
          <mxGeometry x="45" y="150" width="10" height="60" as="geometry" />
        </mxCell>
        <mxCell id="aM9ryv3xv72pqoxQDRHE-6" value="" style="html=1;points=[];perimeter=orthogonalPerimeter;outlineConnect=0;targetShapes=umlLifeline;portConstraint=eastwest;newEdgeStyle={&quot;edgeStyle&quot;:&quot;elbowEdgeStyle&quot;,&quot;elbow&quot;:&quot;vertical&quot;,&quot;curved&quot;:0,&quot;rounded&quot;:0};" parent="aM9ryv3xv72pqoxQDRHE-5" vertex="1">
          <mxGeometry x="45" y="80" width="10" height="240" as="geometry" />
        </mxCell>
        <mxCell id="aM9ryv3xv72pqoxQDRHE-7" value="change(Pseudo)" style="html=1;verticalAlign=bottom;endArrow=block;edgeStyle=elbowEdgeStyle;elbow=vertical;curved=0;rounded=0;" parent="1" source="aM9ryv3xv72pqoxQDRHE-2" target="aM9ryv3xv72pqoxQDRHE-6" edge="1">
          <mxGeometry relative="1" as="geometry">
            <mxPoint x="195" y="130" as="sourcePoint" />
            <Array as="points">
              <mxPoint x="180" y="120" />
            </Array>
          </mxGeometry>
        </mxCell>
        <mxCell id="cc4XYzGoG_5n-Fmv61_O-1" value=":Socket" style="shape=umlLifeline;perimeter=lifelinePerimeter;whiteSpace=wrap;html=1;container=0;dropTarget=0;collapsible=0;recursiveResize=0;outlineConnect=0;portConstraint=eastwest;newEdgeStyle={&quot;edgeStyle&quot;:&quot;elbowEdgeStyle&quot;,&quot;elbow&quot;:&quot;vertical&quot;,&quot;curved&quot;:0,&quot;rounded&quot;:0};" parent="1" vertex="1">
          <mxGeometry x="720" y="40" width="100" height="350" as="geometry" />
        </mxCell>
        <mxCell id="cc4XYzGoG_5n-Fmv61_O-3" value="sendToAll(Pseudo)" style="html=1;verticalAlign=bottom;endArrow=block;edgeStyle=elbowEdgeStyle;elbow=vertical;curved=0;rounded=0;" parent="1" edge="1">
          <mxGeometry x="-0.0654" relative="1" as="geometry">
            <mxPoint x="285" y="290" as="sourcePoint" />
            <Array as="points">
              <mxPoint x="485" y="290" />
            </Array>
            <mxPoint x="619.5" y="290" as="targetPoint" />
            <mxPoint as="offset" />
          </mxGeometry>
        </mxCell>
        <mxCell id="cc4XYzGoG_5n-Fmv61_O-39" value="return()" style="html=1;verticalAlign=bottom;endArrow=block;edgeStyle=elbowEdgeStyle;elbow=vertical;curved=0;rounded=0;dashed=1;" parent="1" edge="1" target="YyPJEFvh9eZEHFCb_p-n-3" source="cc4XYzGoG_5n-Fmv61_O-1">
          <mxGeometry relative="1" as="geometry">
            <mxPoint x="762.5" y="330" as="sourcePoint" />
            <Array as="points">
              <mxPoint x="628" y="330" />
            </Array>
            <mxPoint x="477.5" y="330" as="targetPoint" />
          </mxGeometry>
        </mxCell>
        <mxCell id="cc4XYzGoG_5n-Fmv61_O-40" value="ExistingPseudoException" style="html=1;verticalAlign=bottom;endArrow=block;edgeStyle=elbowEdgeStyle;elbow=vertical;curved=0;rounded=0;dashed=1;" parent="1" edge="1" source="cc4XYzGoG_5n-Fmv61_O-27">
          <mxGeometry relative="1" as="geometry">
            <mxPoint x="385" y="220" as="sourcePoint" />
            <Array as="points">
              <mxPoint x="240" y="220" />
            </Array>
            <mxPoint x="95" y="220" as="targetPoint" />
          </mxGeometry>
        </mxCell>
        <mxCell id="cc4XYzGoG_5n-Fmv61_O-9" value="alt" style="shape=umlFrame;whiteSpace=wrap;html=1;pointerEvents=0;" parent="1" vertex="1">
          <mxGeometry x="10" y="160" width="800" height="220" as="geometry" />
        </mxCell>
        <mxCell id="cc4XYzGoG_5n-Fmv61_O-22" value="" style="endArrow=none;html=1;rounded=0;exitX=0.004;exitY=0.359;exitDx=0;exitDy=0;exitPerimeter=0;entryX=0.998;entryY=0.359;entryDx=0;entryDy=0;entryPerimeter=0;dashed=1;strokeWidth=1;" parent="1" source="cc4XYzGoG_5n-Fmv61_O-9" target="cc4XYzGoG_5n-Fmv61_O-9" edge="1">
          <mxGeometry width="50" height="50" relative="1" as="geometry">
            <mxPoint x="196.55172413793107" y="525" as="sourcePoint" />
            <mxPoint x="262.06896551724145" y="475" as="targetPoint" />
            <Array as="points">
              <mxPoint x="410" y="240" />
            </Array>
          </mxGeometry>
        </mxCell>
        <mxCell id="e0DODWWpl7K0-P-gAAIu-1" value="[Pseudo in List&amp;lt;Agents&amp;gt;]" style="text;html=1;align=center;verticalAlign=middle;resizable=0;points=[];autosize=1;strokeColor=none;fillColor=none;" parent="1" vertex="1">
          <mxGeometry x="100" y="160" width="160" height="30" as="geometry" />
        </mxCell>
        <mxCell id="e0DODWWpl7K0-P-gAAIu-2" value="" style="html=1;points=[];perimeter=orthogonalPerimeter;outlineConnect=0;targetShapes=umlLifeline;portConstraint=eastwest;newEdgeStyle={&quot;edgeStyle&quot;:&quot;elbowEdgeStyle&quot;,&quot;elbow&quot;:&quot;vertical&quot;,&quot;curved&quot;:0,&quot;rounded&quot;:0};" parent="1" vertex="1">
          <mxGeometry x="455" y="630" width="10" height="60" as="geometry" />
        </mxCell>
        <mxCell id="e0DODWWpl7K0-P-gAAIu-3" value=":Socket" style="shape=umlLifeline;perimeter=lifelinePerimeter;whiteSpace=wrap;html=1;container=0;dropTarget=0;collapsible=0;recursiveResize=0;outlineConnect=0;portConstraint=eastwest;newEdgeStyle={&quot;edgeStyle&quot;:&quot;elbowEdgeStyle&quot;,&quot;elbow&quot;:&quot;vertical&quot;,&quot;curved&quot;:0,&quot;rounded&quot;:0};" parent="1" vertex="1">
          <mxGeometry x="50" y="430" width="100" height="320" as="geometry" />
        </mxCell>
        <mxCell id="e0DODWWpl7K0-P-gAAIu-7" value="receive(Pseudo)" style="html=1;verticalAlign=bottom;endArrow=block;edgeStyle=elbowEdgeStyle;elbow=vertical;curved=0;rounded=0;" parent="1" source="e0DODWWpl7K0-P-gAAIu-3" target="YyPJEFvh9eZEHFCb_p-n-6" edge="1">
          <mxGeometry relative="1" as="geometry">
            <mxPoint x="205" y="520" as="sourcePoint" />
            <Array as="points">
              <mxPoint x="170" y="500" />
            </Array>
          </mxGeometry>
        </mxCell>
        <mxCell id="e0DODWWpl7K0-P-gAAIu-8" value=":ContactManager" style="shape=umlLifeline;perimeter=lifelinePerimeter;whiteSpace=wrap;html=1;container=0;dropTarget=0;collapsible=0;recursiveResize=0;outlineConnect=0;portConstraint=eastwest;newEdgeStyle={&quot;edgeStyle&quot;:&quot;elbowEdgeStyle&quot;,&quot;elbow&quot;:&quot;vertical&quot;,&quot;curved&quot;:0,&quot;rounded&quot;:0};" parent="1" vertex="1">
          <mxGeometry x="410" y="430" width="100" height="320" as="geometry" />
        </mxCell>
        <mxCell id="e0DODWWpl7K0-P-gAAIu-4" value="" style="html=1;points=[];perimeter=orthogonalPerimeter;outlineConnect=0;targetShapes=umlLifeline;portConstraint=eastwest;newEdgeStyle={&quot;edgeStyle&quot;:&quot;elbowEdgeStyle&quot;,&quot;elbow&quot;:&quot;vertical&quot;,&quot;curved&quot;:0,&quot;rounded&quot;:0};" parent="e0DODWWpl7K0-P-gAAIu-8" vertex="1">
          <mxGeometry x="45" y="100" width="10" height="190" as="geometry" />
        </mxCell>
        <mxCell id="e0DODWWpl7K0-P-gAAIu-9" value="changePseudo(ip, Pseudo)" style="html=1;verticalAlign=bottom;endArrow=block;edgeStyle=elbowEdgeStyle;elbow=vertical;curved=0;rounded=0;" parent="1" target="e0DODWWpl7K0-P-gAAIu-8" edge="1">
          <mxGeometry relative="1" as="geometry">
            <mxPoint x="259.75" y="530" as="sourcePoint" />
            <Array as="points">
              <mxPoint x="400.25" y="530" />
            </Array>
            <mxPoint x="460.25" y="531" as="targetPoint" />
          </mxGeometry>
        </mxCell>
        <mxCell id="e0DODWWpl7K0-P-gAAIu-18" value=":ContactManager" style="shape=umlLifeline;perimeter=lifelinePerimeter;whiteSpace=wrap;html=1;container=0;dropTarget=0;collapsible=0;recursiveResize=0;outlineConnect=0;portConstraint=eastwest;newEdgeStyle={&quot;edgeStyle&quot;:&quot;elbowEdgeStyle&quot;,&quot;elbow&quot;:&quot;vertical&quot;,&quot;curved&quot;:0,&quot;rounded&quot;:0};" parent="1" vertex="1">
          <mxGeometry x="410" y="40" width="100" height="350" as="geometry" />
        </mxCell>
        <mxCell id="e0DODWWpl7K0-P-gAAIu-19" value="setPseudo(Pseudo)" style="html=1;verticalAlign=bottom;endArrow=block;edgeStyle=elbowEdgeStyle;elbow=vertical;curved=0;rounded=0;" parent="1" edge="1" target="e0DODWWpl7K0-P-gAAIu-18" source="aM9ryv3xv72pqoxQDRHE-6">
          <mxGeometry relative="1" as="geometry">
            <mxPoint x="285" y="150" as="sourcePoint" />
            <Array as="points">
              <mxPoint x="400" y="140" />
              <mxPoint x="370" y="150" />
            </Array>
            <mxPoint x="459.5" y="150" as="targetPoint" />
          </mxGeometry>
        </mxCell>
        <mxCell id="e0DODWWpl7K0-P-gAAIu-20" value="ExistingPseudoException" style="html=1;verticalAlign=bottom;endArrow=block;edgeStyle=elbowEdgeStyle;elbow=vertical;curved=0;rounded=0;dashed=1;" parent="1" source="e0DODWWpl7K0-P-gAAIu-18" target="aM9ryv3xv72pqoxQDRHE-6" edge="1">
          <mxGeometry relative="1" as="geometry">
            <mxPoint x="630" y="209.5" as="sourcePoint" />
            <Array as="points">
              <mxPoint x="485" y="209.5" />
            </Array>
            <mxPoint x="340" y="209.5" as="targetPoint" />
          </mxGeometry>
        </mxCell>
        <mxCell id="e0DODWWpl7K0-P-gAAIu-21" value="return()" style="html=1;verticalAlign=bottom;endArrow=block;edgeStyle=elbowEdgeStyle;elbow=vertical;curved=0;rounded=0;dashed=1;" parent="1" edge="1" target="aM9ryv3xv72pqoxQDRHE-6" source="e0DODWWpl7K0-P-gAAIu-18">
          <mxGeometry relative="1" as="geometry">
            <mxPoint x="455" y="260.5" as="sourcePoint" />
            <Array as="points">
              <mxPoint x="350" y="260" />
            </Array>
            <mxPoint x="260" y="260.5" as="targetPoint" />
          </mxGeometry>
        </mxCell>
        <mxCell id="e0DODWWpl7K0-P-gAAIu-22" value=":Agent" style="shape=umlLifeline;perimeter=lifelinePerimeter;whiteSpace=wrap;html=1;container=0;dropTarget=0;collapsible=0;recursiveResize=0;outlineConnect=0;portConstraint=eastwest;newEdgeStyle={&quot;edgeStyle&quot;:&quot;elbowEdgeStyle&quot;,&quot;elbow&quot;:&quot;vertical&quot;,&quot;curved&quot;:0,&quot;rounded&quot;:0};" parent="1" vertex="1">
          <mxGeometry x="690" y="430" width="100" height="320" as="geometry" />
        </mxCell>
        <mxCell id="e0DODWWpl7K0-P-gAAIu-24" value="notifyObservers()" style="html=1;verticalAlign=bottom;endArrow=block;edgeStyle=elbowEdgeStyle;elbow=vertical;curved=0;rounded=0;endFill=1;" parent="1" source="e0DODWWpl7K0-P-gAAIu-4" target="e0DODWWpl7K0-P-gAAIu-22" edge="1">
          <mxGeometry relative="1" as="geometry">
            <mxPoint x="472.25" y="610" as="sourcePoint" />
            <Array as="points">
              <mxPoint x="747.75" y="610" />
              <mxPoint x="607.75" y="609" />
            </Array>
            <mxPoint x="676.75" y="610" as="targetPoint" />
          </mxGeometry>
        </mxCell>
        <mxCell id="e0DODWWpl7K0-P-gAAIu-25" value="return()" style="html=1;verticalAlign=bottom;endArrow=block;edgeStyle=elbowEdgeStyle;elbow=vertical;curved=0;rounded=0;dashed=1;" parent="1" edge="1" target="e0DODWWpl7K0-P-gAAIu-3" source="YyPJEFvh9eZEHFCb_p-n-6">
          <mxGeometry relative="1" as="geometry">
            <mxPoint x="260" y="740" as="sourcePoint" />
            <Array as="points">
              <mxPoint x="155.5" y="740" />
            </Array>
            <mxPoint x="45" y="740" as="targetPoint" />
          </mxGeometry>
        </mxCell>
        <mxCell id="YyPJEFvh9eZEHFCb_p-n-1" value=":NetworkManager" style="shape=umlLifeline;perimeter=lifelinePerimeter;whiteSpace=wrap;html=1;container=0;dropTarget=0;collapsible=0;recursiveResize=0;outlineConnect=0;portConstraint=eastwest;newEdgeStyle={&quot;edgeStyle&quot;:&quot;elbowEdgeStyle&quot;,&quot;elbow&quot;:&quot;vertical&quot;,&quot;curved&quot;:0,&quot;rounded&quot;:0};" vertex="1" parent="1">
          <mxGeometry x="570" y="40" width="100" height="350" as="geometry" />
        </mxCell>
        <mxCell id="YyPJEFvh9eZEHFCb_p-n-3" value="" style="html=1;points=[];perimeter=orthogonalPerimeter;outlineConnect=0;targetShapes=umlLifeline;portConstraint=eastwest;newEdgeStyle={&quot;edgeStyle&quot;:&quot;elbowEdgeStyle&quot;,&quot;elbow&quot;:&quot;vertical&quot;,&quot;curved&quot;:0,&quot;rounded&quot;:0};" vertex="1" parent="YyPJEFvh9eZEHFCb_p-n-1">
          <mxGeometry x="45" y="250" width="10" height="50" as="geometry" />
        </mxCell>
        <mxCell id="YyPJEFvh9eZEHFCb_p-n-2" value="send(Pseudo)" style="html=1;verticalAlign=bottom;endArrow=block;edgeStyle=elbowEdgeStyle;elbow=vertical;curved=0;rounded=0;" edge="1" parent="1" source="YyPJEFvh9eZEHFCb_p-n-3">
          <mxGeometry x="-0.0654" relative="1" as="geometry">
            <mxPoint x="619.5" y="310" as="sourcePoint" />
            <Array as="points">
              <mxPoint x="700" y="310" />
            </Array>
            <mxPoint x="769.5" y="310" as="targetPoint" />
            <mxPoint as="offset" />
          </mxGeometry>
        </mxCell>
        <mxCell id="YyPJEFvh9eZEHFCb_p-n-4" value="return()" style="html=1;verticalAlign=bottom;endArrow=block;edgeStyle=elbowEdgeStyle;elbow=vertical;curved=0;rounded=0;dashed=1;" edge="1" parent="1" target="aM9ryv3xv72pqoxQDRHE-6">
          <mxGeometry relative="1" as="geometry">
            <mxPoint x="615" y="340" as="sourcePoint" />
            <Array as="points" />
            <mxPoint x="459.5" y="340" as="targetPoint" />
          </mxGeometry>
        </mxCell>
        <mxCell id="YyPJEFvh9eZEHFCb_p-n-5" value="return()" style="html=1;verticalAlign=bottom;endArrow=block;edgeStyle=elbowEdgeStyle;elbow=vertical;curved=0;rounded=0;dashed=1;" edge="1" parent="1" source="aM9ryv3xv72pqoxQDRHE-6">
          <mxGeometry relative="1" as="geometry">
            <mxPoint x="425" y="360" as="sourcePoint" />
            <Array as="points" />
            <mxPoint x="95" y="360" as="targetPoint" />
          </mxGeometry>
        </mxCell>
        <mxCell id="YyPJEFvh9eZEHFCb_p-n-6" value=":UDPServer" style="shape=umlLifeline;perimeter=lifelinePerimeter;whiteSpace=wrap;html=1;container=0;dropTarget=0;collapsible=0;recursiveResize=0;outlineConnect=0;portConstraint=eastwest;newEdgeStyle={&quot;edgeStyle&quot;:&quot;elbowEdgeStyle&quot;,&quot;elbow&quot;:&quot;vertical&quot;,&quot;curved&quot;:0,&quot;rounded&quot;:0};" vertex="1" parent="1">
          <mxGeometry x="210" y="430" width="100" height="320" as="geometry" />
        </mxCell>
        <mxCell id="YyPJEFvh9eZEHFCb_p-n-7" value="" style="html=1;points=[];perimeter=orthogonalPerimeter;outlineConnect=0;targetShapes=umlLifeline;portConstraint=eastwest;newEdgeStyle={&quot;edgeStyle&quot;:&quot;elbowEdgeStyle&quot;,&quot;elbow&quot;:&quot;vertical&quot;,&quot;curved&quot;:0,&quot;rounded&quot;:0};" vertex="1" parent="YyPJEFvh9eZEHFCb_p-n-6">
          <mxGeometry x="45" y="70" width="10" height="240" as="geometry" />
        </mxCell>
        <mxCell id="YyPJEFvh9eZEHFCb_p-n-8" value="alt" style="shape=umlFrame;whiteSpace=wrap;html=1;pointerEvents=0;" vertex="1" parent="1">
          <mxGeometry x="290" y="540" width="400" height="190" as="geometry" />
        </mxCell>
        <mxCell id="YyPJEFvh9eZEHFCb_p-n-9" value="Contact existing" style="text;html=1;align=center;verticalAlign=middle;resizable=0;points=[];autosize=1;strokeColor=none;fillColor=none;" vertex="1" parent="1">
          <mxGeometry x="350" y="540" width="110" height="30" as="geometry" />
        </mxCell>
        <mxCell id="YyPJEFvh9eZEHFCb_p-n-11" value=":Contact" style="shape=umlLifeline;perimeter=lifelinePerimeter;whiteSpace=wrap;html=1;container=0;dropTarget=0;collapsible=0;recursiveResize=0;outlineConnect=0;portConstraint=eastwest;newEdgeStyle={&quot;edgeStyle&quot;:&quot;elbowEdgeStyle&quot;,&quot;elbow&quot;:&quot;vertical&quot;,&quot;curved&quot;:0,&quot;rounded&quot;:0};" vertex="1" parent="1">
          <mxGeometry x="560" y="430" width="100" height="320" as="geometry" />
        </mxCell>
        <mxCell id="YyPJEFvh9eZEHFCb_p-n-10" value="setPseudo(Pseudo)" style="html=1;verticalAlign=bottom;endArrow=block;edgeStyle=elbowEdgeStyle;elbow=vertical;curved=0;rounded=0;endFill=1;" edge="1" parent="1" source="e0DODWWpl7K0-P-gAAIu-4" target="YyPJEFvh9eZEHFCb_p-n-11">
          <mxGeometry x="0.0381" relative="1" as="geometry">
            <mxPoint x="460" y="590" as="sourcePoint" />
            <Array as="points">
              <mxPoint x="540" y="590" />
            </Array>
            <mxPoint x="604.5" y="590" as="targetPoint" />
            <mxPoint as="offset" />
          </mxGeometry>
        </mxCell>
        <mxCell id="YyPJEFvh9eZEHFCb_p-n-12" value="" style="endArrow=none;html=1;rounded=0;dashed=1;strokeWidth=1;entryX=1;entryY=0.476;entryDx=0;entryDy=0;entryPerimeter=0;exitX=0.003;exitY=0.476;exitDx=0;exitDy=0;exitPerimeter=0;" edge="1" parent="1" source="YyPJEFvh9eZEHFCb_p-n-8" target="YyPJEFvh9eZEHFCb_p-n-8">
          <mxGeometry width="50" height="50" relative="1" as="geometry">
            <mxPoint x="290" y="620" as="sourcePoint" />
            <mxPoint x="680" y="620" as="targetPoint" />
            <Array as="points" />
          </mxGeometry>
        </mxCell>
        <mxCell id="YyPJEFvh9eZEHFCb_p-n-13" value="addContact(ip,Pseudo)" style="html=1;verticalAlign=bottom;endArrow=open;edgeStyle=elbowEdgeStyle;elbow=vertical;curved=0;rounded=0;endFill=0;" edge="1" parent="1" source="e0DODWWpl7K0-P-gAAIu-2" target="e0DODWWpl7K0-P-gAAIu-2">
          <mxGeometry x="0.4" y="-10" relative="1" as="geometry">
            <mxPoint x="499.5" y="630" as="sourcePoint" />
            <Array as="points">
              <mxPoint x="570" y="680" />
            </Array>
            <mxPoint x="499.5" y="690" as="targetPoint" />
            <mxPoint as="offset" />
          </mxGeometry>
        </mxCell>
        <mxCell id="YyPJEFvh9eZEHFCb_p-n-14" value="notifyObservers()" style="html=1;verticalAlign=bottom;endArrow=block;edgeStyle=elbowEdgeStyle;elbow=vertical;curved=0;rounded=0;endFill=1;" edge="1" parent="1" source="e0DODWWpl7K0-P-gAAIu-4" target="e0DODWWpl7K0-P-gAAIu-22">
          <mxGeometry relative="1" as="geometry">
            <mxPoint x="465" y="695" as="sourcePoint" />
            <Array as="points">
              <mxPoint x="680" y="700" />
              <mxPoint x="607.75" y="689" />
            </Array>
            <mxPoint x="740" y="695" as="targetPoint" />
          </mxGeometry>
        </mxCell>
        <mxCell id="e0DODWWpl7K0-P-gAAIu-10" value="return()" style="html=1;verticalAlign=bottom;endArrow=block;edgeStyle=elbowEdgeStyle;elbow=vertical;curved=0;rounded=0;dashed=1;" parent="1" edge="1" target="YyPJEFvh9eZEHFCb_p-n-7" source="e0DODWWpl7K0-P-gAAIu-4">
          <mxGeometry relative="1" as="geometry">
            <mxPoint x="455" y="720" as="sourcePoint" />
            <Array as="points">
              <mxPoint x="351" y="720" />
            </Array>
            <mxPoint x="200.5" y="720" as="targetPoint" />
          </mxGeometry>
        </mxCell>
      </root>
    </mxGraphModel>
  </diagram>
</mxfile>
